<svg id="contact_icon" data-name="contact icon" xmlns="http://www.w3.org/2000/svg" width="20.816" height="24" viewBox="0 0 20.816 24">
  <g id="Ellipse_35" data-name="Ellipse 35" transform="translate(3.402)" fill="none" stroke="#000" stroke-width="2.5">
    <circle cx="7.006" cy="7.006" r="7.006" stroke="none"/>
    <circle cx="7.006" cy="7.006" r="5.756" fill="none"/>
  </g>
  <g id="Subtraction_1" data-name="Subtraction 1" transform="translate(0 11.991)" fill="none">
    <path d="M20.693,12.009H.122A10.417,10.417,0,0,1,10.408,0,10.42,10.42,0,0,1,20.816,10.408a10.526,10.526,0,0,1-.122,1.6Z" stroke="none"/>
    <path d="M 18.26476097106934 9.50901985168457 C 17.81706428527832 5.570303440093994 14.46418857574463 2.5 10.40776443481445 2.5 C 6.351340293884277 2.5 2.998463869094849 5.570303440093994 2.550768375396729 9.50901985168457 L 18.26476097106934 9.50901985168457 M 20.69312477111816 12.00901985168457 L 0.1223844364285469 12.00901985168457 C 0.04064443334937096 11.47945022583008 4.434814400156029e-06 10.94122982025146 4.434814400156029e-06 10.40791034698486 C 4.434814400156029e-06 4.668970108032227 4.668904304504395 -7.415771818841677e-08 10.40776443481445 -7.415771818841677e-08 C 16.1466236114502 -7.415771818841677e-08 20.81552505493164 4.668970108032227 20.81552505493164 10.40791034698486 C 20.81552505493164 10.94382953643799 20.77442359924316 11.48205947875977 20.69334411621094 12.00765991210938 L 20.69312477111816 12.00901985168457 Z" stroke="none" fill="#000"/>
  </g>
</svg>
